<svg width="246" height="41" viewBox="0 0 246 41" fill="none" xmlns="http://www.w3.org/2000/svg">
<path d="M19.7 16.1834L21.2706 16.1834L21.2706 31.6498L20.4853 32.435L19.7 31.6498L19.7 16.1834V16.1834ZM17.6344 7.97219C17.421 8.18558 17.2845 8.49286 17.2845 8.81721L17.2845 11.9412L23.6861 11.9412L23.6861 8.81721C23.6861 8.15144 23.1484 7.6137 22.4826 7.6137L18.488 7.6137C18.1466 7.6137 17.8564 7.75027 17.6344 7.97219V7.97219ZM17.2845 13.7678L17.2845 32.6484L20.4853 35.8493L23.6861 32.6484L23.6861 13.7678L17.2845 13.7678V13.7678Z" fill="white"/>
<path d="M32.3495 33.4853H34.8788V22.8759C35.052 22.5569 35.2525 22.2652 35.4803 22.0009C35.7173 21.7366 35.9725 21.5042 36.246 21.3036C36.5832 21.0758 36.9524 20.8981 37.3534 20.7704C37.7544 20.6337 38.1874 20.5654 38.6522 20.5654C39.19 20.5654 39.6639 20.6292 40.0741 20.7568C40.4934 20.8844 40.8488 21.0895 41.1405 21.372C41.4231 21.6546 41.6372 22.0237 41.7831 22.4794C41.9289 22.9352 42.0018 23.4911 42.0018 24.1474V33.4853H44.5311V24.0927C44.5311 23.1083 44.4081 22.2607 44.162 21.5497C43.925 20.8297 43.5832 20.2372 43.1366 19.7724C42.69 19.3076 42.1477 18.9658 41.5096 18.747C40.8807 18.5283 40.1789 18.4189 39.4042 18.4189C38.83 18.428 38.2831 18.5146 37.7635 18.6786C37.2531 18.8336 36.7792 19.0569 36.3417 19.3486C36.05 19.54 35.772 19.7678 35.5077 20.0322C35.2525 20.2874 35.0155 20.5699 34.7968 20.8798L34.619 18.6923H32.3495V33.4853ZM57.3942 15.1103H54.8512V18.6923H50.9684V20.6474H54.8512V28.6865C54.8512 29.5979 54.9697 30.3772 55.2067 31.0244C55.4528 31.6624 55.7855 32.1819 56.2047 32.5829C56.624 32.9931 57.1162 33.2939 57.6813 33.4853C58.2555 33.6676 58.8707 33.7587 59.527 33.7587C59.9189 33.7587 60.3108 33.7405 60.7028 33.704C61.1038 33.6676 61.4821 33.6129 61.8375 33.54C62.193 33.4762 62.5211 33.3987 62.8219 33.3076C63.1227 33.2073 63.3779 33.0934 63.5875 32.9658L63.2321 31.1747C63.0771 31.2112 62.8766 31.2568 62.6305 31.3115C62.3935 31.357 62.1383 31.4026 61.8649 31.4482C61.5823 31.4938 61.2952 31.5348 61.0035 31.5712C60.7119 31.5986 60.4293 31.6122 60.1559 31.6122C59.7822 31.6122 59.4267 31.5667 59.0895 31.4755C58.7614 31.3844 58.4697 31.2249 58.2145 30.997C57.9593 30.7783 57.7588 30.482 57.6129 30.1083C57.4671 29.7346 57.3942 29.2607 57.3942 28.6865V20.6474H63.027V18.6923H57.3942V15.1103ZM76.9975 33.7587C78.4376 33.7587 79.6452 33.4716 80.6205 32.8974C81.6049 32.3141 82.3432 31.6487 82.8353 30.9013L81.2904 29.6982C80.8256 30.2997 80.2422 30.7828 79.5404 31.1474C78.8386 31.512 78.0365 31.6943 77.1342 31.6943C76.4506 31.6943 75.8262 31.5667 75.2611 31.3115C74.696 31.0563 74.213 30.7053 73.8119 30.2587C73.42 29.8395 73.1101 29.3564 72.8822 28.8095C72.6635 28.2626 72.5222 27.6292 72.4584 26.9091V26.8134H83.0268V25.6786C83.0268 24.6487 82.8946 23.6917 82.6303 22.8076C82.3751 21.9234 81.9831 21.1533 81.4545 20.497C80.9258 19.8499 80.2605 19.344 79.4584 18.9794C78.6654 18.6057 77.7357 18.4189 76.6693 18.4189C75.8217 18.4189 74.9922 18.5921 74.181 18.9384C73.379 19.2848 72.6635 19.7815 72.0346 20.4286C71.3965 21.0849 70.8861 21.887 70.5033 22.8349C70.1205 23.7737 69.9291 24.8401 69.9291 26.0341V26.6083C69.9291 27.6383 70.1023 28.5908 70.4486 29.4658C70.795 30.3408 71.2781 31.0973 71.8978 31.7353C72.5176 32.3733 73.2605 32.8701 74.1264 33.2255C75.0014 33.581 75.9584 33.7587 76.9975 33.7587ZM76.6693 20.497C77.3165 20.497 77.8725 20.6155 78.3373 20.8525C78.8113 21.0895 79.2032 21.3994 79.5131 21.7822C79.823 22.165 80.0645 22.6207 80.2377 23.1494C80.4109 23.6689 80.4975 24.1565 80.4975 24.6122V24.7353H72.5404C72.6407 24.0517 72.8139 23.4501 73.06 22.9306C73.3152 22.402 73.6251 21.9553 73.9896 21.5908C74.3542 21.2353 74.7644 20.9664 75.2201 20.7841C75.6758 20.5927 76.1589 20.497 76.6693 20.497ZM99.2121 18.4189C98.1365 18.4189 97.175 18.6559 96.3273 19.1298C95.4888 19.5947 94.7687 20.2327 94.1671 21.0439L94.1535 20.6747L94.0441 18.6923H91.6378V33.4853H94.1808V23.997C94.3449 23.5413 94.55 23.1311 94.7961 22.7665C95.0513 22.3928 95.3475 22.0784 95.6847 21.8232C96.0584 21.5315 96.4959 21.3128 96.9972 21.1669C97.4985 21.012 98.0591 20.9345 98.6789 20.9345C99.1619 20.9345 99.6222 20.9619 100.06 21.0165C100.506 21.0621 100.976 21.1396 101.468 21.249L101.81 18.7744C101.555 18.665 101.172 18.5784 100.661 18.5146C100.16 18.4508 99.6769 18.4189 99.2121 18.4189ZM113.62 33.4853H115.548L121.577 18.6923H118.993L114.851 29.8486L114.604 30.7646L114.372 29.8486L110.134 18.6923H107.536L113.62 33.4853ZM128.028 18.6923V20.8935H133.059V31.2978H128.028V33.4853H140.415V31.2978H135.589V18.6923H128.028ZM132.731 14.8095C132.731 15.2197 132.854 15.5615 133.1 15.8349C133.355 16.1083 133.738 16.2451 134.249 16.2451C134.75 16.2451 135.128 16.1083 135.383 15.8349C135.639 15.5615 135.766 15.2197 135.766 14.8095C135.766 14.5816 135.73 14.372 135.657 14.1806C135.584 13.9892 135.475 13.8297 135.329 13.7021C135.21 13.5836 135.06 13.4925 134.878 13.4286C134.695 13.3557 134.486 13.3193 134.249 13.3193C134.012 13.3193 133.798 13.3557 133.606 13.4286C133.424 13.4925 133.273 13.5836 133.155 13.7021C133.009 13.8388 132.9 14.0029 132.827 14.1943C132.763 14.3857 132.731 14.5908 132.731 14.8095ZM153.223 33.7587C154.663 33.7587 155.871 33.4716 156.846 32.8974C157.831 32.3141 158.569 31.6487 159.061 30.9013L157.516 29.6982C157.051 30.2997 156.468 30.7828 155.766 31.1474C155.064 31.512 154.262 31.6943 153.36 31.6943C152.676 31.6943 152.052 31.5667 151.487 31.3115C150.922 31.0563 150.439 30.7053 150.038 30.2587C149.646 29.8395 149.336 29.3564 149.108 28.8095C148.889 28.2626 148.748 27.6292 148.684 26.9091V26.8134H159.252V25.6786C159.252 24.6487 159.12 23.6917 158.856 22.8076C158.601 21.9234 158.209 21.1533 157.68 20.497C157.151 19.8499 156.486 19.344 155.684 18.9794C154.891 18.6057 153.961 18.4189 152.895 18.4189C152.047 18.4189 151.218 18.5921 150.407 18.9384C149.605 19.2848 148.889 19.7815 148.26 20.4286C147.622 21.0849 147.112 21.887 146.729 22.8349C146.346 23.7737 146.155 24.8401 146.155 26.0341V26.6083C146.155 27.6383 146.328 28.5908 146.674 29.4658C147.021 30.3408 147.504 31.0973 148.123 31.7353C148.743 32.3733 149.486 32.8701 150.352 33.2255C151.227 33.581 152.184 33.7587 153.223 33.7587ZM152.895 20.497C153.542 20.497 154.098 20.6155 154.563 20.8525C155.037 21.0895 155.429 21.3994 155.739 21.7822C156.049 22.165 156.29 22.6207 156.463 23.1494C156.636 23.6689 156.723 24.1565 156.723 24.6122V24.7353H148.766C148.866 24.0517 149.039 23.4501 149.286 22.9306C149.541 22.402 149.851 21.9553 150.215 21.5908C150.58 21.2353 150.99 20.9664 151.446 20.7841C151.901 20.5927 152.385 20.497 152.895 20.497ZM167.166 33.4853H169.162L171.445 24.4208L171.815 22.124L172.197 24.4208L174.508 33.4853H176.504L179.649 18.6923H177.406L175.766 28.1259L175.397 30.4501L175 28.1259L172.649 18.6923H171.022L168.656 28.1259L168.287 30.2451L167.987 28.1259L166.264 18.6923H164.022L167.166 33.4853Z" fill="white"/>
<mask id="mask0_415_2" style="mask-type:alpha" maskUnits="userSpaceOnUse" x="185" y="13" width="61" height="22">
<path d="M194.814 13.6364H199.666V27.7159C199.66 29.035 199.345 30.1884 198.722 31.1761C198.098 32.1572 197.237 32.9195 196.136 33.4631C195.043 34.0066 193.777 34.2784 192.338 34.2784C191.065 34.2784 189.909 34.0563 188.868 33.6122C187.834 33.1681 187.009 32.4787 186.392 31.544C185.782 30.6094 185.481 29.4129 185.487 27.9545H190.389C190.409 28.4782 190.509 28.9257 190.688 29.2969C190.873 29.6615 191.128 29.9366 191.453 30.1222C191.778 30.3078 192.166 30.4006 192.616 30.4006C193.087 30.4006 193.485 30.3011 193.81 30.1023C194.134 29.8968 194.38 29.5952 194.545 29.1974C194.718 28.7997 194.807 28.3059 194.814 27.7159V13.6364ZM209.401 34H204.111L210.982 13.6364H217.534L224.405 34H219.115L214.333 18.767H214.174L209.401 34ZM208.695 25.9858H219.752V29.7244H208.695V25.9858ZM228.838 34V13.6364H237.25C238.774 13.6364 240.09 13.9115 241.197 14.4616C242.311 15.0052 243.169 15.7874 243.772 16.8082C244.375 17.8224 244.677 19.0256 244.677 20.4176C244.677 21.8295 244.369 23.0294 243.752 24.017C243.136 24.9981 242.261 25.7472 241.127 26.2642C239.994 26.7746 238.652 27.0298 237.1 27.0298H231.781V23.152H236.186C236.928 23.152 237.548 23.0559 238.045 22.8636C238.549 22.6648 238.93 22.3665 239.188 21.9688C239.447 21.5644 239.576 21.0473 239.576 20.4176C239.576 19.7879 239.447 19.2675 239.188 18.8565C238.93 18.4389 238.549 18.1274 238.045 17.9219C237.541 17.7098 236.921 17.6037 236.186 17.6037H233.759V34H228.838ZM240.302 24.6932L245.373 34H240.004L235.032 24.6932H240.302Z" fill="white"/>
</mask>
<g mask="url(#mask0_415_2)">
<rect x="182.029" y="-3.48529" width="91" height="50" fill="#FF6854"/>
</g>
</svg>
